<svg width="651" height="677" viewBox="0 0 651 677" fill="none" xmlns="http://www.w3.org/2000/svg">
<rect x="265.821" y="159.217" width="117.361" height="67.298" stroke="#F2F2F2" stroke-width="1.64141"/>
<rect x="411.821" y="606.821" width="117.361" height="67.298" stroke="#F2F2F2" stroke-width="1.64141"/>
<rect x="119.821" y="608.821" width="117.361" height="67.298" stroke="#F2F2F2" stroke-width="1.64141"/>
<rect x="265" width="119.003" height="68.9394" fill="#F2F2F2"/>
<rect x="0.820707" y="159.217" width="117.361" height="67.298" stroke="#F2F2F2" stroke-width="1.64141"/>
<rect x="1.82071" y="286.821" width="117.361" height="67.298" stroke="#F2F2F2" stroke-width="1.64141"/>
<rect x="266.821" y="416.821" width="117.361" height="67.298" stroke="#F2F2F2" stroke-width="1.64141"/>
<rect x="531.818" y="159.217" width="117.361" height="67.298" stroke="#F2F2F2" stroke-width="1.64141"/>
<rect x="532.818" y="286.821" width="117.361" height="67.298" stroke="#F2F2F2" stroke-width="1.64141"/>
<path d="M325.119 68.529L325.12 158.404" stroke="#F2F2F2" stroke-width="1.64141"/>
<path d="M324.853 226.582L324.822 416.924" stroke="#F2F2F2" stroke-width="1.64141"/>
<path d="M179 547L471 545" stroke="#F2F2F2" stroke-width="1.64141"/>
<path d="M591.594 226L591.88 286.61" stroke="#F2F2F2" stroke-width="1.64141"/>
<path d="M322.594 485L322.88 545.61" stroke="#F2F2F2" stroke-width="1.64141"/>
<path d="M470.594 545L470.88 605.61" stroke="#F2F2F2" stroke-width="1.64141"/>
<path d="M179.594 547L179.88 607.61" stroke="#F2F2F2" stroke-width="1.64141"/>
<path d="M61.5936 226.265L61.8804 286.875" stroke="#F2F2F2" stroke-width="1.64141"/>
<path d="M283.213 68.1187L96.0227 159.217" stroke="#F2F2F2" stroke-width="1.64141"/>
<path d="M366.847 67.4818L554.037 158.58" stroke="#F2F2F2" stroke-width="1.64141"/>
</svg>
