<?xml version="1.0" encoding="UTF-8" standalone="no"?><!DOCTYPE svg PUBLIC "-//W3C//DTD SVG 1.1//EN" "http://www.w3.org/Graphics/SVG/1.1/DTD/svg11.dtd"><svg width="100%" height="100%" viewBox="0 0 6000 6000" version="1.1" xmlns="http://www.w3.org/2000/svg" xmlns:xlink="http://www.w3.org/1999/xlink" xml:space="preserve" xmlns:serif="http://www.serif.com/" style="fill-rule:evenodd;clip-rule:evenodd;stroke-linecap:round;stroke-linejoin:round;stroke-miterlimit:1.5;"><rect x="0" y="0" width="6000" height="6111.78" style="fill:#0071b0;"/><rect x="0" y="0" width="6000" height="6000" style="fill:none;"/><path d="M2686.45,857.261l0,1029.98l-253.783,0.466l-0.456,514.023l257.392,-0.115c-5.403,560.706 19.73,1151.09 -3.153,1666.17c0,-4.007 1.173,201.253 -158.297,311.275c-41.962,28.951 -87.859,66.902 -155.015,80.54c-19.414,3.942 -50.059,6.692 -71.896,4.99c-415.014,-32.341 -361.605,-448.548 -370.116,-422.926l-262.7,-399.997l-272.59,399.997c2.706,-8.916 -25.647,518.669 446.678,816.742c134.492,84.875 284.965,111.292 404.809,120.198c215.464,16.011 411.053,-53.747 553.219,-147.705c52.031,-34.388 101.579,-84.953 144.683,-120.468c-0,0 112.773,122.345 303.233,200.855c199.261,82.138 483.176,111.159 802.821,-60.771c292.662,-157.417 451.435,-513.599 420.516,-744.846c-21.464,-160.523 -216.643,-413.728 -263.168,-465.927l-248.432,390.633c-0,0 30.803,424.763 -362.273,425.11c-359.799,0.318 -382.262,-396.05 -393.923,-387.7l-0,-1667.46l234.266,5.059c18.17,6.916 427.934,8.856 666.395,-360.935c198.744,-308.201 154.727,-696.111 -80.211,-940.389c-122.773,-127.653 -303.644,-224.802 -486.745,-235.05c-17.016,-0.952 -33.782,-8.339 -51.673,-9.031c-317.928,-12.303 -796.232,11.724 -799.581,-2.719Z" style="fill:#f2f2ff;stroke:#0071b0;stroke-width:33.33px;"/><path d="M3207.15,1345.46l0,514.818l308.758,0.707c118.676,-34.948 196.718,-112.493 207.651,-260.39c-11.74,-132.355 -83.204,-217.04 -216.891,-252.058l-299.518,-3.077Z" style="fill:#0082d4;stroke:#0082d4;stroke-width:33.33px;"/><rect x="2679.92" y="2561.28" width="535.194" height="1480.39" style="fill:#c4c4c4;fill-rule:nonzero;stroke:#0071b0;stroke-width:33.33px;stroke-linecap:butt;stroke-miterlimit:2;"/><path d="M4460.29,4041.67l-255.875,-395.475l-249.567,395.475l-568.892,-0l535.054,-746.538l-516.02,-733.854l560.433,0l251.658,372.213l245.334,-372.213l537.166,0l-513.916,714.817l545.625,765.575l-571,-0Z" style="fill:#c4c4c4;fill-rule:nonzero;stroke:#0071b0;stroke-width:33.33px;stroke-linecap:butt;stroke-miterlimit:2;"/><path d="M1932.39,4041.67l-268.403,-395.475l-261.746,395.475l-596.696,-0l561.205,-746.538l-541.242,-733.854l587.825,0l263.966,372.213l257.311,-372.213l563.425,0l-539.025,714.817l572.296,765.575l-598.916,-0Z" style="fill:#c4c4c4;fill-rule:nonzero;stroke:#0071b0;stroke-width:33.33px;stroke-linecap:butt;stroke-miterlimit:2;"/></svg>